<svg id="Layer_1" data-name="Layer 1" xmlns="http://www.w3.org/2000/svg" viewBox="0 0 97.71 56.8" width="320" height="200">
    <defs>
        <style>.cls-1{fill:none; stroke:#7d8390;stroke-width:0.6 }.cls-2{fill:none;stroke:#eb0029;stroke-width:0.6 }.cls-3{fill:none;stroke:#060e9f;stroke-width:0.6 }</style>
    </defs>
    <title>Logo ILA DU HOC</title>
    <path class="cls-1"
          d="M6.32,51.61H1.49V33.07H6.27a21.15,21.15,0,0,1,4.32.35,9.87,9.87,0,0,1,4,1.76,8.78,8.78,0,0,1,2.62,3.23,9.2,9.2,0,0,1,.93,4,8.59,8.59,0,0,1-.93,3.87,8.8,8.8,0,0,1-2.62,3.2,10,10,0,0,1-4,1.76A20.75,20.75,0,0,1,6.32,51.61ZM2,51.11H6.32a20.57,20.57,0,0,0,4.22-.35,9.47,9.47,0,0,0,3.79-1.67,8.31,8.31,0,0,0,2.48-3,8.1,8.1,0,0,0,.88-3.65,8.71,8.71,0,0,0-.88-3.8,8.29,8.29,0,0,0-2.47-3.05h0a9.39,9.39,0,0,0-3.84-1.66,20.63,20.63,0,0,0-4.22-.34H2Zm4.39-3.7H6.13V37.27h.25a16.77,16.77,0,0,1,2.42.12,6.85,6.85,0,0,1,2.44.81A5,5,0,0,1,13,40a4.81,4.81,0,0,1,.62,2.4,4.48,4.48,0,0,1-2.15,3.9,5.61,5.61,0,0,1-1.87.84A13.83,13.83,0,0,1,6.38,47.41Zm.25-9.63v9.13a12.72,12.72,0,0,0,2.83-.23,5.12,5.12,0,0,0,1.71-.76,4,4,0,0,0,1.94-3.48,4.31,4.31,0,0,0-.56-2.15A4.48,4.48,0,0,0,11,38.63a6.36,6.36,0,0,0-2.25-.74A15,15,0,0,0,6.63,37.77Z"
          transform="translate(-1.15 -0.71)"/>
    <path class="cls-1"
          d="M26.68,52a9.46,9.46,0,0,1-3.33-.63,8.55,8.55,0,0,1-2.81-1.67,5.81,5.81,0,0,1-1.72-2.56,9.44,9.44,0,0,1-.34-2.75V33.07h5.14V44.44a3.4,3.4,0,0,0,.54,1.86,2.46,2.46,0,0,0,1,.71,2.87,2.87,0,0,0,2.71,0,3,3,0,0,0,1.05-.81,4.87,4.87,0,0,0,.62-.94,1.93,1.93,0,0,0,.16-.8V33.07h5.15V44.44a9.36,9.36,0,0,1-.31,2.63,5.85,5.85,0,0,1-1.63,2.58,8.57,8.57,0,0,1-2.78,1.72A9.15,9.15,0,0,1,26.68,52ZM19,33.57V44.44a9,9,0,0,0,.32,2.6,5.31,5.31,0,0,0,1.57,2.34,8.06,8.06,0,0,0,2.65,1.57,8.58,8.58,0,0,0,6.4,0,8.08,8.08,0,0,0,2.63-1.61A5.29,5.29,0,0,0,34,46.92a8.87,8.87,0,0,0,.29-2.48V33.57H30.2V44.44a2.46,2.46,0,0,1-.21,1,5.39,5.39,0,0,1-.69,1,3.52,3.52,0,0,1-1.22.94,3.36,3.36,0,0,1-3.14,0,2.94,2.94,0,0,1-1.18-.89,3.89,3.89,0,0,1-.63-2.14V33.57Z"
          transform="translate(-1.15 -0.71)"/>
    <path class="cls-1"
          d="M59.12,51.61H54V44.52H48.94v7.08H43.78V33.07h5.16v6.76H54V33.07h5.1Zm-4.6-.5h4.1V33.57h-4.1v6.76H48.44V33.57H44.28V51.11h4.16V44h6.08Z"
          transform="translate(-1.15 -0.71)"/>
    <path class="cls-1" d="M71,57.51H65.93V53.1H71ZM66.43,57h4.06V53.6H66.43Z" transform="translate(-1.15 -0.71)"/>
    <path class="cls-1"
          d="M88.78,52a10.7,10.7,0,0,1-7.45-2.86,9.37,9.37,0,0,1-2.86-4.61,9.16,9.16,0,0,1-2.6,4.62,9.69,9.69,0,0,1-13.61,0,9.24,9.24,0,0,1-2.86-6.82,9.4,9.4,0,0,1,2.81-6.86,9.68,9.68,0,0,1,16.25,4.62,9.25,9.25,0,0,1,2.86-4.61,10.67,10.67,0,0,1,7.38-2.8,11.66,11.66,0,0,1,5.79,1.52,8.72,8.72,0,0,1,3.87,4.14l.51,1.15H93.27L93,39.27a5.35,5.35,0,0,0-1.92-1.34,5.94,5.94,0,0,0-2.41-.49,5.25,5.25,0,0,0-3.79,1.49,4.63,4.63,0,0,0-1.55,3.5,4.46,4.46,0,0,0,1.59,3.4,5.44,5.44,0,0,0,3.81,1.48A5.68,5.68,0,0,0,91,46.89a6.35,6.35,0,0,0,1.94-1.3l.24-.23h5.64l-.54,1.16a8.84,8.84,0,0,1-3.84,4A11.27,11.27,0,0,1,88.78,52ZM78.69,42.52a8.57,8.57,0,0,0,3,6.29,10.21,10.21,0,0,0,7.11,2.73,10.77,10.77,0,0,0,5.38-1.44,8.35,8.35,0,0,0,3.63-3.79l.21-.45H93.34l-.09.09a6.87,6.87,0,0,1-2.09,1.4,6.17,6.17,0,0,1-2.42.46A5.92,5.92,0,0,1,84.6,46.2a4.93,4.93,0,0,1-1.75-3.77,5.11,5.11,0,0,1,1.71-3.86,5.73,5.73,0,0,1,4.14-1.62,6.43,6.43,0,0,1,2.61.53,5.84,5.84,0,0,1,2.09,1.47l.1.11h4.59l-.2-.44a8.23,8.23,0,0,0-3.66-3.91,11.16,11.16,0,0,0-5.54-1.46,10.18,10.18,0,0,0-7,2.67,8.48,8.48,0,0,0-3,6.29h-.5a9.15,9.15,0,0,0-18.3.19,8.76,8.76,0,0,0,2.71,6.46,9.19,9.19,0,0,0,12.9,0,8.7,8.7,0,0,0,2.68-6.31Zm-9.63,5.27a5.07,5.07,0,0,1-3.8-1.62,5.31,5.31,0,0,1-1.57-3.87,5.19,5.19,0,0,1,1.56-3.82,5.12,5.12,0,0,1,3.81-1.57,5.35,5.35,0,0,1,5.4,5.4,5.25,5.25,0,0,1-1.62,3.86A5.09,5.09,0,0,1,69.07,47.79Zm0-10.39a4.64,4.64,0,0,0-3.45,1.43,4.71,4.71,0,0,0-1.42,3.47,4.83,4.83,0,0,0,1.43,3.52,4.73,4.73,0,0,0,6.87,0,4.89,4.89,0,0,0-3.42-8.4Z"
          transform="translate(-1.15 -0.71)"/>
    <path class="cls-2"
          d="M4.53,7.6A3.38,3.38,0,1,1,7.91,4.22,3.39,3.39,0,0,1,4.53,7.6Zm0-6.26A2.88,2.88,0,1,0,7.41,4.22,2.89,2.89,0,0,0,4.53,1.34Z"
          transform="translate(-1.15 -0.71)"/>
    <path class="cls-3" d="M7.12,28.67H1.91V9.85H7.12Zm-4.47-.75H6.37V10.6H2.66Z" transform="translate(-1.15 -0.71)"/>
    <path class="cls-3" d="M16.07,28.67H10.85V.71h5.22Zm-4.47-.75h3.72V1.46H11.6Z" transform="translate(-1.15 -0.71)"/>
    <path class="cls-3"
          d="M25.08,28.87A6.4,6.4,0,0,1,20.31,27a6,6,0,0,1-1.63-4.18,6.47,6.47,0,0,1,3.19-5.74,14.89,14.89,0,0,1,7.42-1.83,4,4,0,0,0-.22-1,2,2,0,0,0-1-1.18,3.56,3.56,0,0,0-1.65-.33,7.58,7.58,0,0,0-4.15,1.14l-1.09.73-1.4-4.15.67-.42a12.37,12.37,0,0,1,6.38-1.68,9.2,9.2,0,0,1,3.77.71,6.25,6.25,0,0,1,2.47,2,9.23,9.23,0,0,1,1.54,5.56v6.63a29.38,29.38,0,0,0,.24,4.08l.17,1.15H30l-.15-1.15A7.84,7.84,0,0,1,25.08,28.87ZM26.29,12a4.38,4.38,0,0,1,2.06.41A2.79,2.79,0,0,1,29.76,14a5,5,0,0,1,.3,1.57V16h-.38a14.56,14.56,0,0,0-7.43,1.73,5.72,5.72,0,0,0-2.83,5.1,5.21,5.21,0,0,0,1.43,3.66,5.65,5.65,0,0,0,4.21,1.67,7,7,0,0,0,4.82-1.8l.53-.5.25,1.9h3.4l0-.29a30.18,30.18,0,0,1-.25-4.19V16.62a8.52,8.52,0,0,0-1.39-5.11,5.51,5.51,0,0,0-2.17-1.74,8.47,8.47,0,0,0-3.46-.64,11.6,11.6,0,0,0-6,1.57l-.17.1.9,2.66.28-.18A8.28,8.28,0,0,1,26.29,12Zm-.4,13.24a2.57,2.57,0,0,1-2.74-2.81,3,3,0,0,1,.56-1.86,4.54,4.54,0,0,1,2.54-1.48,14.67,14.67,0,0,1,3.51-.41h.38v2.84a3,3,0,0,1-.13,1,4.23,4.23,0,0,1-1.4,1.91A4.48,4.48,0,0,1,25.89,25.25Zm3.49-5.81a13.28,13.28,0,0,0-2.95.38A3.82,3.82,0,0,0,24.3,21a2.26,2.26,0,0,0-.41,1.41,1.83,1.83,0,0,0,2,2.06,3.74,3.74,0,0,0,2.26-.71,3.45,3.45,0,0,0,1.14-1.56,2.29,2.29,0,0,0,.09-.71Z"
          transform="translate(-1.15 -0.71)"/>
</svg>